mtllib Asset 3.mtl
# Vertex Positions: 
g groupNumber_0
v 4.35954 -3.24003 -0.0008825
v 4.35954 3.24003 -0.0008825
v -4.35954 3.24003 -0.0008825
v -4.35954 -3.24003 -0.0008825
v 4.35954 -3.24003 0.0008825
v 4.35954 3.24003 0.0008825
v -4.35954 3.24003 0.0008825
v -4.35954 -3.24003 0.0008825
v 4.35954 1.77636e-15 -2.1684e-19
v -1.77636e-15 3.24003 -2.1684e-19
v -4.35954 1.77636e-15 -2.1684e-19
v -1.77636e-15 -3.24003 -2.1684e-19


# Vertex Texture Coordinates :
vt 0.6457 0
vt 0.6457 0.479888
vt 0 0.479888
vt 0 0
vt 0 0.487901
vt 0 0.967789
vt 0.6457 0.967789
vt 0.6457 0.487901
vt 6.5582e-05 0.97575
vt 0.479953 0.97575
vt 0 0.98379
vt 0.6457 0.98379
vt 6.5582e-05 0.99183
vt 0.479953 0.99183
vt 1.92376e-16 0.999869
vt 0.6457 0.999869
vt 6.5582e-05 0.975881
vt 0.479953 0.975881
vt 0 0.983921
vt 0.6457 0.983921
vt 6.5582e-05 0.99196
vt 0.479953 0.99196
vt 1.92376e-16 1
vt 0.6457 1
vt 0.24001 0.975815
vt 0.32285 0.983855
vt 0.24001 0.991895
vt 0.32285 0.999935


# Vertex Surface Normals: 
vn 0 0 1
vn 0 0 -1
vn 1 0 0
vn 1 0 0
vn 1 0 0
vn 1 0 0
vn 1 0 0
vn 0 1 0
vn 0 1 0
vn 0 1 0
vn 0 1 0
vn 0 1 0
vn -1 0 0
vn -1 0 0
vn -1 0 0
vn -1 0 0
vn -1 0 0
vn 0 -1 0
vn 0 -1 0
vn 0 -1 0
vn 0 -1 0
vn 0 -1 0


# Faces: 
usemtl material0
f 7/3/1 8/4/1 5/1/1
f 5/1/1 6/2/1 7/3/1
f 4/8/2 3/7/2 1/5/2
f 2/6/2 1/5/2 3/7/2
f 9/25/3 1/9/4 2/10/5
f 9/25/3 2/10/5 6/18/6
f 9/25/3 6/18/6 5/17/7
f 9/25/3 5/17/7 1/9/4
f 10/26/8 2/11/9 3/12/10
f 10/26/8 3/12/10 7/20/11
f 10/26/8 7/20/11 6/19/12
f 10/26/8 6/19/12 2/11/9
f 11/27/13 3/13/14 4/14/15
f 11/27/13 4/14/15 8/22/16
f 11/27/13 8/22/16 7/21/17
f 11/27/13 7/21/17 3/13/14
f 12/28/18 4/15/19 1/16/20
f 12/28/18 1/16/20 5/24/21
f 12/28/18 5/24/21 8/23/22
f 12/28/18 8/23/22 4/15/19

# Vertex Positions: 
g groupNumber_1
v 4.35954 3.24003 -0.0008825
v 4.35954 -3.24003 -0.0008825
v -4.35954 -3.24003 -0.0008825
v -4.35954 3.24003 -0.0008825
v 4.35954 3.24003 0.0008825
v 4.35954 -3.24003 0.0008825
v -4.35954 -3.24003 0.0008825
v -4.35954 3.24003 0.0008825
v 4.35954 0 0
v 8.88178e-16 -3.24003 0
v -4.35954 0 0
v 8.88178e-16 3.24003 0
v 4.39484 -3.27533 -0.0008825
v 4.39484 3.27533 -0.0008825
v -4.39484 3.27533 -0.0008825
v -4.39484 -3.27533 -0.0008825
v 4.39484 -3.27533 0.0008825
v 4.39484 3.27533 0.0008825
v -4.39484 3.27533 0.0008825
v -4.39484 -3.27533 0.0008825
v 4.39484 0 0
v 8.88178e-16 3.27533 0
v -4.39484 0 0
v 8.88178e-16 -3.27533 0


# Vertex Texture Coordinates :
vt 0.62153 0.462568
vt 0.62153 0.00250618
vt 0.00250618 0.00250618
vt 0.00250618 0.462568
vt 0.624036 0
vt 0.624036 0.465074
vt 0 0.465074
vt 0 0
vt 0.00250618 0.935318
vt 0.00250618 0.475256
vt 0.62153 0.475256
vt 0.62153 0.935318
vt 0 0.47275
vt 0 0.937824
vt 0.624036 0.937824
vt 0.624036 0.47275
vt 2.1576e-05 0.945485
vt 0.460083 0.945485
vt 6.85332e-05 0.953255
vt 0.619093 0.953255
vt 2.1576e-05 0.961025
vt 0.460083 0.961025
vt 6.85332e-05 0.968795
vt 0.619093 0.968795
vt 2.1576e-05 0.94561
vt 0.460083 0.94561
vt 6.85332e-05 0.95338
vt 0.619093 0.95338
vt 2.1576e-05 0.96115
vt 0.460083 0.96115
vt 6.85332e-05 0.96892
vt 0.619093 0.96892
vt 0.230052 0.945547
vt 0.309581 0.953317
vt 0.230052 0.961087
vt 0.309581 0.968857
vt 2.92194e-05 0.976565
vt 0.465103 0.976565
vt 4.3218e-17 0.984335
vt 0.624036 0.984335
vt 2.92194e-05 0.992105
vt 0.465103 0.992105
vt 4.3218e-17 0.999875
vt 0.624036 0.999875
vt 2.92194e-05 0.97669
vt 0.465103 0.97669
vt 4.3218e-17 0.98446
vt 0.624036 0.98446
vt 2.92194e-05 0.99223
vt 0.465103 0.99223
vt 4.3218e-17 1
vt 0.624036 1
vt 0.232566 0.976627
vt 0.312018 0.984397
vt 0.232566 0.992167
vt 0.312018 0.999937


# Vertex Surface Normals: 
vn 0 0 1
vn 0 0 -1
vn -1 0 0
vn -1 0 0
vn -1 0 0
vn -1 0 0
vn -1 0 0
vn 0 1 0
vn 0 1 0
vn 0 1 0
vn 0 1 0
vn 0 1 0
vn 1 0 0
vn 1 0 0
vn 1 0 0
vn 1 0 0
vn 1 0 0
vn 0 -1 0
vn 0 -1 0
vn 0 -1 0
vn 0 -1 0
vn 0 -1 0
vn 1 0 0
vn 1 0 0
vn 1 0 0
vn 1 0 0
vn 1 0 0
vn 0 1 0
vn 0 1 0
vn 0 1 0
vn 0 1 0
vn 0 1 0
vn -1 0 0
vn -1 0 0
vn -1 0 0
vn -1 0 0
vn -1 0 0
vn 0 -1 0
vn 0 -1 0
vn 0 -1 0
vn 0 -1 0
vn 0 -1 0


# Faces: 
usemtl material1
f 32/36/23 19/31/23 20/32/23
f 19/31/23 32/36/23 29/33/23
f 31/35/23 20/32/23 17/29/23
f 20/32/23 31/35/23 32/36/23
f 18/30/23 29/33/23 30/34/23
f 29/33/23 18/30/23 19/31/23
f 17/29/23 30/34/23 31/35/23
f 30/34/23 17/29/23 18/30/23
f 15/39/24 28/44/24 16/40/24
f 28/44/24 15/39/24 25/41/24
f 16/40/24 27/43/24 13/37/24
f 27/43/24 16/40/24 28/44/24
f 25/41/24 14/38/24 26/42/24
f 14/38/24 25/41/24 15/39/24
f 26/42/24 13/37/24 27/43/24
f 13/37/24 26/42/24 14/38/24
f 21/61/25 13/45/26 14/46/27
f 21/61/25 14/46/27 18/54/28
f 21/61/25 18/54/28 17/53/29
f 21/61/25 17/53/29 13/45/26
f 22/62/30 14/47/31 15/48/32
f 22/62/30 15/48/32 19/56/33
f 22/62/30 19/56/33 18/55/34
f 22/62/30 18/55/34 14/47/31
f 23/63/35 15/49/36 16/50/37
f 23/63/35 16/50/37 20/58/38
f 23/63/35 20/58/38 19/57/39
f 23/63/35 19/57/39 15/49/36
f 24/64/40 16/51/41 13/52/42
f 24/64/40 13/52/42 17/60/43
f 24/64/40 17/60/43 20/59/44
f 24/64/40 20/59/44 16/51/41
f 33/81/45 25/65/46 26/66/47
f 33/81/45 26/66/47 30/74/48
f 33/81/45 30/74/48 29/73/49
f 33/81/45 29/73/49 25/65/46
f 34/82/50 26/67/51 27/68/52
f 34/82/50 27/68/52 31/76/53
f 34/82/50 31/76/53 30/75/54
f 34/82/50 30/75/54 26/67/51
f 35/83/55 27/69/56 28/70/57
f 35/83/55 28/70/57 32/78/58
f 35/83/55 32/78/58 31/77/59
f 35/83/55 31/77/59 27/69/56
f 36/84/60 28/71/61 25/72/62
f 36/84/60 25/72/62 29/80/63
f 36/84/60 29/80/63 32/79/64
f 36/84/60 32/79/64 28/71/61
